# xmcd
#
# Track frame offsets:
#	150
#	16822
#	32047
#	49145
#	61700
#	81215
#	93852
#	110422
#	122417
#	139985
#	153522
#	171952
#
# Disc length: 2529 seconds
#
# Revision: 0
# Processed by: cddbd v1.5.1PL2 Copyright (c) Steve Scherf et al.
# Submitted via: EasyCDDAExtractor 7.1.2.1
#
DISCID=9109df0c
DTITLE=Trisha Yearwood - Hit Disc
DYEAR=1996
DGENRE=Country
TTITLE0=Believe Me Baby (I Lied)
TTITLE1=Thinkin' About You
TTITLE2=The Woman Before Me
TTITLE3=Wrong Side of Memphis
TTITLE4=Walkaway Joe
TTITLE5=XXX's and OOO's (An American Girl)
TTITLE6=Like We Never Had a Broken Heart
TTITLE7=That's What I Like About You
TTITLE8=Down On My Knees
TTITLE9=I Wanna Go Too Far
TTITLE10=She's In Love With the Boy
TTITLE11=The Song Remembers When
EXTD=
EXTT0=
EXTT1=
EXTT2=
EXTT3=
EXTT4=
EXTT5=
EXTT6=
EXTT7=
EXTT8=
EXTT9=
EXTT10=
EXTT11=
PLAYORDER=
